<svg width="504" height="350" viewBox="0 0 504 350" fill="none" xmlns="http://www.w3.org/2000/svg">
<path d="M7.76953 0.203125H71.5391V20.9062H33.0625V70.0273H63.2383V89.9492H33.0625V167H7.76953V0.203125ZM98.6875 0.203125H127.203L158.355 167H132.965L128.375 137.117H97.5156L93.1211 167H67.6328L98.6875 0.203125ZM125.445 118.074L113.531 34.5781H112.457L100.445 118.074H125.445ZM173.59 0.203125H204.938L221.637 67.6836C223.395 74.7799 224.762 81.6159 225.738 88.1914C226.715 94.7018 227.626 100.789 228.473 106.453H229.254C230.165 100.789 231.077 94.7018 231.988 88.1914C232.965 81.6159 234.332 74.7799 236.09 67.6836L252.594 0.203125H283.941V167H261.285V111.824C261.285 100.496 261.415 89.8516 261.676 79.8906C262.001 69.9297 262.359 61.2057 262.75 53.7188C263.206 46.2318 263.596 40.5352 263.922 36.6289H262.066L236.871 145.516H220.855L195.465 36.6289H193.609C194 40.5352 194.391 46.2318 194.781 53.7188C195.172 61.2057 195.497 69.9297 195.758 79.8906C196.083 89.8516 196.246 100.496 196.246 111.824V167H173.59V0.203125ZM311.48 0.203125H336.773V167H311.48V0.203125ZM364.41 0.203125H389.703V147.078H424.176V167H364.41V0.203125ZM444.977 108.504L412.359 0.203125H437.848L457.184 80.6719H458.355L477.691 0.203125H503.082L470.27 108.504V167H444.977V108.504ZM0.347656 314.211C0.347656 310.63 0.542969 307.31 0.933594 304.25C1.38932 301.19 2.04036 297.935 2.88672 294.484H22.5156V301.906C22.5156 310.891 23.8828 317.792 26.6172 322.609C29.3516 327.362 33.5508 329.738 39.2148 329.738C48.9805 329.738 53.8633 324.953 53.8633 315.383C53.8633 311.672 53.0495 307.766 51.4219 303.664C49.8594 299.562 46.7669 294.549 42.1445 288.625L15.7773 255.52C11.1549 249.53 7.54167 243.54 4.9375 237.551C2.39844 231.561 1.12891 224.888 1.12891 217.531C1.12891 206.464 4.54688 197.414 11.3828 190.383C18.2839 183.286 27.8216 179.738 39.9961 179.738C49.8268 179.738 57.5417 181.529 63.1406 185.109C68.7396 188.625 72.6784 193.085 74.957 198.488C77.3008 203.892 78.4727 209.426 78.4727 215.09C78.4727 218.671 78.1797 221.991 77.5938 225.051C77.0729 228.046 76.4544 231.366 75.7383 235.012H56.207V227.004C56.207 218.215 54.8073 211.444 52.0078 206.691C49.2083 201.939 45.2044 199.562 39.9961 199.562C35.2435 199.562 31.6302 200.897 29.1562 203.566C26.7474 206.171 25.543 209.686 25.543 214.113C25.543 217.889 26.3242 221.34 27.8867 224.465C29.4492 227.525 31.4349 230.682 33.8438 233.938L63.2383 271.242C68.6419 278.208 72.7435 284.849 75.543 291.164C78.4076 297.414 79.8398 304.38 79.8398 312.062C79.8398 323.586 76.1615 332.733 68.8047 339.504C61.4479 346.21 51.6497 349.562 39.4102 349.562C29.3841 349.562 21.5065 347.87 15.7773 344.484C10.1133 341.034 6.10938 336.607 3.76562 331.203C1.48698 325.799 0.347656 320.135 0.347656 314.211ZM99.1758 181.203H119.195L159.918 290.871H160.504C160.243 287.421 159.885 283.579 159.43 279.348C159.039 275.051 158.681 269.908 158.355 263.918C158.03 257.928 157.867 250.637 157.867 242.043V181.203H180.328V348H160.113L119.586 241.262H118.805C119.13 245.168 119.488 249.432 119.879 254.055C120.27 258.677 120.628 264.504 120.953 271.535C121.279 278.566 121.441 287.714 121.441 298.977V348H99.1758V181.203ZM226.617 181.203H255.133L286.285 348H260.895L256.305 318.117H225.445L221.051 348H195.562L226.617 181.203ZM253.375 299.074L241.461 215.578H240.387L228.375 299.074H253.375ZM301.52 181.203H326.812C330.654 181.203 334.853 181.464 339.41 181.984C344.033 182.44 348.622 183.547 353.18 185.305C357.737 186.997 361.904 189.699 365.68 193.41C369.521 197.121 372.581 202.167 374.859 208.547C377.138 214.927 378.277 223.033 378.277 232.863V238.723C378.277 249.4 377.203 258.286 375.055 265.383C372.971 272.479 370.172 278.176 366.656 282.473C363.141 286.704 359.202 289.895 354.84 292.043C350.543 294.126 346.181 295.526 341.754 296.242C337.327 296.893 333.16 297.219 329.254 297.219H326.812V348H301.52V181.203ZM328.082 278.664C337.262 278.664 343.577 275.93 347.027 270.461C350.543 264.992 352.301 255.975 352.301 243.41V228.371C352.301 218.475 350.641 211.184 347.32 206.496C344.065 201.809 337.652 199.465 328.082 199.465H326.812V278.664H328.082Z" fill="white"/>
</svg>
