<svg width="186" height="35" viewBox="0 0 186 35" fill="none" xmlns="http://www.w3.org/2000/svg">
<path d="M0.753906 0.640625H13.5078V4.78125H5.8125V14.6055H11.8477V18.5898H5.8125V34H0.753906V0.640625ZM18.9375 0.640625H24.6406L30.8711 34H25.793L24.875 28.0234H18.7031L17.8242 34H12.7266L18.9375 0.640625ZM24.2891 24.2148L21.9062 7.51562H21.6914L19.2891 24.2148H24.2891ZM33.918 0.640625H40.1875L43.5273 14.1367C43.8789 15.556 44.1523 16.9232 44.3477 18.2383C44.543 19.5404 44.7253 20.7578 44.8945 21.8906H45.0508C45.2331 20.7578 45.4154 19.5404 45.5977 18.2383C45.793 16.9232 46.0664 15.556 46.418 14.1367L49.7188 0.640625H55.9883V34H51.457V22.9648C51.457 20.6992 51.4831 18.5703 51.5352 16.5781C51.6003 14.5859 51.6719 12.8411 51.75 11.3438C51.8411 9.84635 51.9193 8.70703 51.9844 7.92578H51.6133L46.5742 29.7031H43.3711L38.293 7.92578H37.9219C38 8.70703 38.0781 9.84635 38.1562 11.3438C38.2344 12.8411 38.2995 14.5859 38.3516 16.5781C38.4167 18.5703 38.4492 20.6992 38.4492 22.9648V34H33.918V0.640625ZM61.4961 0.640625H66.5547V34H61.4961V0.640625ZM72.082 0.640625H77.1406V30.0156H84.0352V34H72.082V0.640625ZM88.1953 22.3008L81.6719 0.640625H86.7695L90.6367 16.7344H90.8711L94.7383 0.640625H99.8164L93.2539 22.3008V34H88.1953V22.3008ZM109.934 27.2422C109.934 26.526 109.973 25.862 110.051 25.25C110.142 24.638 110.272 23.987 110.441 23.2969H114.367V24.7812C114.367 26.5781 114.641 27.9583 115.188 28.9219C115.734 29.8724 116.574 30.3477 117.707 30.3477C119.66 30.3477 120.637 29.3906 120.637 27.4766C120.637 26.7344 120.474 25.9531 120.148 25.1328C119.836 24.3125 119.217 23.3099 118.293 22.125L113.02 15.5039C112.095 14.306 111.372 13.1081 110.852 11.9102C110.344 10.7122 110.09 9.3776 110.09 7.90625C110.09 5.69271 110.773 3.88281 112.141 2.47656C113.521 1.05729 115.428 0.347656 117.863 0.347656C119.829 0.347656 121.372 0.705729 122.492 1.42188C123.612 2.125 124.4 3.01693 124.855 4.09766C125.324 5.17839 125.559 6.28516 125.559 7.41797C125.559 8.13411 125.5 8.79818 125.383 9.41016C125.279 10.0091 125.155 10.6732 125.012 11.4023H121.105V9.80078C121.105 8.04297 120.826 6.6888 120.266 5.73828C119.706 4.78776 118.905 4.3125 117.863 4.3125C116.913 4.3125 116.19 4.57943 115.695 5.11328C115.214 5.63411 114.973 6.33724 114.973 7.22266C114.973 7.97786 115.129 8.66797 115.441 9.29297C115.754 9.90495 116.151 10.5365 116.633 11.1875L122.512 18.6484C123.592 20.0417 124.413 21.3698 124.973 22.6328C125.546 23.8828 125.832 25.276 125.832 26.8125C125.832 29.1172 125.096 30.9466 123.625 32.3008C122.154 33.6419 120.194 34.3125 117.746 34.3125C115.741 34.3125 114.165 33.974 113.02 33.2969C111.887 32.6068 111.086 31.7214 110.617 30.6406C110.161 29.5599 109.934 28.4271 109.934 27.2422ZM129.699 0.640625H133.703L141.848 22.5742H141.965C141.913 21.8841 141.841 21.1159 141.75 20.2695C141.672 19.4102 141.6 18.3815 141.535 17.1836C141.47 15.9857 141.438 14.5273 141.438 12.8086V0.640625H145.93V34H141.887L133.781 12.6523H133.625C133.69 13.4336 133.762 14.2865 133.84 15.2109C133.918 16.1354 133.99 17.3008 134.055 18.707C134.12 20.1133 134.152 21.9427 134.152 24.1953V34H129.699V0.640625ZM155.188 0.640625H160.891L167.121 34H162.043L161.125 28.0234H154.953L154.074 34H148.977L155.188 0.640625ZM160.539 24.2148L158.156 7.51562H157.941L155.539 24.2148H160.539ZM170.168 0.640625H175.227C175.995 0.640625 176.835 0.692708 177.746 0.796875C178.671 0.888021 179.589 1.10938 180.5 1.46094C181.411 1.79948 182.245 2.33984 183 3.08203C183.768 3.82422 184.38 4.83333 184.836 6.10938C185.292 7.38542 185.52 9.00651 185.52 10.9727V12.1445C185.52 14.2799 185.305 16.0573 184.875 17.4766C184.458 18.8958 183.898 20.0352 183.195 20.8945C182.492 21.7409 181.704 22.3789 180.832 22.8086C179.973 23.2253 179.1 23.5052 178.215 23.6484C177.329 23.7786 176.496 23.8438 175.715 23.8438H175.227V34H170.168V0.640625ZM175.48 20.1328C177.316 20.1328 178.579 19.5859 179.27 18.4922C179.973 17.3984 180.324 15.5951 180.324 13.082V10.0742C180.324 8.09505 179.992 6.63672 179.328 5.69922C178.677 4.76172 177.395 4.29297 175.48 4.29297H175.227V20.1328H175.48Z" fill="white"/>
</svg>
